<svg width="49" height="49" viewBox="0 0 49 49" fill="none" xmlns="http://www.w3.org/2000/svg">
	<circle cx="24.5" cy="24.5" r="23.5" fill="white" stroke="black" stroke-width="2" />
	<path d="M39.5004 42.8767L38.2672 28.3059L40.2234 29.1523C41.3701 29.6485 42.5973 28.6393 42.3319 27.4183C42.1562 26.61 41.7593 25.8665 41.1855 25.2706L39.7133 23.7418C39.3517 22.5518 38.1768 20.2622 36.3693 20.6237C34.5617 20.9852 34.7424 19.9007 35.0588 19.3132L38.2672 16.8278H32.483L36.3693 14.3876H29.0486L27.8504 13.2393C26.5314 11.9752 24.775 11.2695 22.948 11.2695L24.9816 12.8512L25.3287 13.5069C25.5402 13.9065 25.2506 14.3876 24.7984 14.3876H23.2644L21.6191 13.8659C20.2537 13.433 18.8299 13.2127 17.3975 13.2127C17.0255 13.2127 16.9114 13.717 17.2473 13.8771L18.3634 14.4091C18.9236 14.6761 18.7334 15.5173 18.1128 15.5173L15.7506 15.8848C15.4182 15.9365 15.4097 16.4123 15.7401 16.4758L17.5705 16.8278C15.1336 18.1043 13.2802 20.2684 12.3937 22.8727L12.3286 23.0639L11.8066 22.092C11.3644 21.2686 10.3554 20.9347 9.50934 21.3319C9.06857 21.5388 8.76042 21.9523 8.68819 22.4338L8.30208 25.0079C8.18606 25.7813 7.9029 26.5202 7.4723 27.173C6.98619 27.91 6.67217 28.7982 6.8917 29.6533C7.44816 31.8209 9.19995 30.374 9.97872 31.1528L8.87543 42.2642" stroke="black" stroke-width="2" />
	<path d="M18.2056 23.9628C18.2056 24.986 16.3075 26.7177 15.8556 26.7177C14.8324 26.7177 15.1325 25.2732 15.5389 24.2339C15.9452 23.1945 16.76 22.5287 17.5731 22.6981C18.4317 23.3308 18.2056 23.6012 18.2056 23.9628Z" fill="black" />
	<path d="M30.3237 26.0872C29.4559 25.545 28.9932 23.0177 29.2327 22.6345C29.7749 21.7667 30.8408 22.7867 31.5069 23.6821C32.173 24.5774 32.3058 25.6213 31.7313 26.221C30.7398 26.6139 30.6303 26.2788 30.3237 26.0872Z" fill="black" />
	<path d="M20.2487 37.8794C19.7995 37.5987 17.6873 36.5913 16.9483 34.2183C16.26 32.008 16.7245 29.2459 17.6716 28.1634C18.6206 27.0789 19.3436 25.045 24.8572 25.045C28.7889 25.045 29.6403 26.8082 30.2789 27.6664C30.9175 28.5246 32.811 32.3212 30.7318 35.5295C29.4673 37.9446 26.2587 39.3253 24.4059 38.8734C23.4144 39.2663 20.5553 38.071 20.2487 37.8794Z" fill="#535353" fill-opacity="0.64" />
	<path d="M22.1252 30.0708C21.8893 29.9274 21.5817 30.0024 21.4383 30.2383C21.2948 30.4743 21.3699 30.7819 21.6058 30.9253L21.8655 30.498L22.1252 30.0708ZM26.6518 30.9206C26.8851 30.7729 26.9546 30.4641 26.807 30.2307C26.6594 29.9974 26.3505 29.9279 26.1171 30.0755L26.3845 30.498L26.6518 30.9206ZM24.1702 31.8989H23.6702V35.8304H24.1702H24.6702V31.8989H24.1702ZM24.1702 35.8304L24.0547 35.3439L23.0686 35.5779L23.1841 36.0644L23.2995 36.5509L24.2856 36.3169L24.1702 35.8304ZM24.1702 35.8304L24.0547 36.3169L25.1277 36.5715L25.2431 36.085L25.3586 35.5985L24.2856 35.3439L24.1702 35.8304ZM24.1702 31.8989L24.4299 31.4717L22.1252 30.0708L21.8655 30.498L21.6058 30.9253L23.9105 32.3262L24.1702 31.8989ZM24.1702 31.8989L24.4375 32.3215L26.6518 30.9206L26.3845 30.498L26.1171 30.0755L23.9029 31.4764L24.1702 31.8989ZM25.2431 36.085L25.1277 36.5715C26.2885 36.8469 27.5048 36.437 28.2621 35.5151L27.8757 35.1977L27.4893 34.8804C26.9746 35.5071 26.1477 35.7857 25.3586 35.5985L25.2431 36.085ZM23.1841 36.0644L23.0686 35.5779C22.2056 35.7827 21.2991 35.5075 20.6955 34.8575L20.3291 35.1977L19.9627 35.538C20.8114 36.4519 22.086 36.8388 23.2995 36.5509L23.1841 36.0644Z" fill="black" />
	<circle cx="24.5" cy="24.5" r="23.5" stroke="black" stroke-width="2" />
</svg>
